<?xml version="1.0" encoding="UTF-8"?>
<svg xmlns="http://www.w3.org/2000/svg" xmlns:se="https://standardebooks.org/vocab/1.0" version="1.1" viewBox="0 0 1400 340" se:generated-from="7d2388d23e80248bde0acd912ccc5816dff3ff3a">
	<path d="M 435.41593,130 454.87792,130 476.86622,52.807016 457.40424,52.807016 444.21125,105.76608 443.74342,105.76608 429.70833,52.807016 416.42178,52.807016 402.38669,105.76608 401.91885,105.76608 388.72587,52.807016 369.17032,52.807016 391.15862,130 410.71418,130 423.06505,86.678362 435.41593,130 Z"/>
	<path d="M 503.67616,99.029239 528.56505,99.029239 528.56505,130 546.1557,130 546.1557,52.807016 528.56505,52.807016 528.56505,83.590642 503.67616,83.590642 503.67616,52.807016 486.08552,52.807016 486.08552,130 503.67616,130 503.67616,99.029239 Z"/>
	<path d="M 579.94809,52.807016 562.35745,52.807016 562.35745,130 579.94809,130 579.94809,52.807016 Z"/>
	<path d="M 586.79751,68.245613 605.13669,68.245613 605.13669,130 622.72733,130 622.72733,68.245613 641.06651,68.245613 641.06651,52.807016 586.79751,52.807016 586.79751,68.245613 Z"/>
	<path d="M 696.56504,52.807016 652.4013,52.807016 652.4013,130 696.56504,130 696.56504,114.5614 669.99194,114.5614 669.99194,99.029239 695.44224,99.029239 695.44224,83.590642 669.99194,83.590642 669.99194,68.245613 696.56504,68.245613 696.56504,52.807016 Z"/>
	<path d="M 786.89399,52.807016 742.26241,52.807016 742.26241,130 759.85306,130 759.85306,99.029239 784.83551,99.029239 784.83551,83.590642 759.85306,83.590642 759.85306,68.245613 786.89399,68.245613 786.89399,52.807016 Z"/>
	<path d="M 836.1747,52.807016 819.894,52.807016 788.73611,130 807.63669,130 813.3443,114.5614 842.72441,114.5614 848.43201,130 867.3326,130 836.1747,52.807016 Z M 836.73611,99.122806 819.3326,99.122806 827.94079,76.666666 828.12792,76.666666 836.73611,99.122806 Z"/>
	<path d="M 892.84283,82.093566 893.02997,82.093566 923.72003,130 941.31067,130 941.31067,52.807016 923.72003,52.807016 923.72003,100.71345 923.53289,100.71345 892.84283,52.807016 875.25219,52.807016 875.25219,130 892.84283,130 892.84283,82.093566 Z"/>
	<path d="M 1027.356,86.771929 991.70685,86.771929 991.70685,100.33918 1009.4846,100.33918 C 1009.4846,109.78947 1001.1571,115.21637 992.73609,115.21637 981.88229,115.21637 973.08697,104.54971 973.08697,91.450292 973.08697,78.070175 981.88229,67.30994 992.73609,67.30994 999.5665,67.30994 1005.4612,70.023391 1009.9525,77.228069 L 1021.4612,64.59649 C 1014.7244,56.456139 1005.2741,51.403507 991.70685,51.403507 969.99925,51.403507 954.09282,69.274853 954.09282,91.450292 954.09282,113.53216 970.93492,131.40351 991.70685,131.40351 1006.8647,131.40351 1023.1454,123.07602 1027.356,103.52047 L 1027.356,86.771929 Z"/>
	<path d="M 432.67928,232.10526 419.4863,232.10526 419.4863,270.2807 C 419.4863,276.10526 416.6091,278.42105 412.81963,278.42105 409.45121,278.42105 405.31086,274.49123 405.31086,274.49123 L 401.10033,285.50877 C 401.10033,285.50877 406.36349,291.05263 414.64419,291.05263 426.22314,291.05263 432.67928,285.01754 432.67928,273.64912 L 432.67928,232.10526 Z"/>
	<path d="M 474.78454,232.10526 462.57402,232.10526 439.2056,290 453.38103,290 457.66174,278.42105 479.69682,278.42105 483.97752,290 498.15296,290 474.78454,232.10526 Z M 475.20559,266.84211 462.15296,266.84211 468.6091,250 468.74945,250 475.20559,266.84211 Z"/>
	<path d="M 533.95669,278.07018 C 520.69353,278.07018 514.86897,268.80702 514.86897,261.01754 514.86897,253.29825 520.69353,244.03509 533.95669,244.03509 540.69353,244.03509 545.32511,247.61404 545.32511,247.61404 L 550.93915,236.38597 C 550.93915,236.38597 544.48301,231.05263 531.9216,231.05263 515.50055,231.05263 500.55318,244.52632 500.55318,261.1579 500.55318,277.7193 515.57072,291.05263 531.9216,291.05263 544.48301,291.05263 550.93915,285.7193 550.93915,285.7193 L 545.32511,274.49123 C 545.32511,274.49123 540.69353,278.07018 533.95669,278.07018 Z"/>
	<path d="M 613.75713,290 586.80976,259.54386 610.108,232.10526 594.108,232.10526 574.24836,255.75439 574.24836,232.10526 561.05537,232.10526 561.05537,290 574.24836,290 574.24836,265.4386 595.58169,290 613.75713,290 Z"/>
	<path d="M 658.6727,232.10526 645.47972,232.10526 645.47972,290 678.60253,290 678.60253,278.42105 658.6727,278.42105 658.6727,232.10526 Z"/>
	<path d="M 687.49396,261.01754 C 687.49396,277.92982 699.56414,291.05263 716.68694,291.05263 733.31852,291.05263 745.80975,277.92982 745.80975,261.01754 745.80975,244.10526 732.75712,231.05263 716.68694,231.05263 700.75712,231.05263 687.49396,244.10526 687.49396,261.01754 Z M 701.73958,261.01754 C 701.73958,252.38597 706.51151,243.75439 716.68694,243.75439 726.93256,243.75439 731.56414,252.38597 731.56414,261.01754 731.56414,269.64912 727.21326,278.2807 716.68694,278.2807 705.87993,278.2807 701.73958,269.64912 701.73958,261.01754 Z"/>
	<path d="M 769.82402,254.07018 769.96437,254.07018 792.98192,290 806.1749,290 806.1749,232.10526 792.98192,232.10526 792.98192,268.03509 792.84157,268.03509 769.82402,232.10526 756.63104,232.10526 756.63104,290 769.82402,290 769.82402,254.07018 Z"/>
	<path d="M 819.608,232.10526 819.608,290 836.37993,290 C 852.30975,290 865.57291,277.92982 865.57291,261.01754 865.57291,244.17544 852.23958,232.10526 836.37993,232.10526 L 819.608,232.10526 Z M 832.80098,278.21053 832.80098,243.89474 834.83607,243.89474 C 844.66063,243.89474 851.3273,251.40351 851.3273,261.08772 851.25712,270.77193 844.59046,278.21053 834.83607,278.21053 L 832.80098,278.21053 Z"/>
	<path d="M 873.82071,261.01754 C 873.82071,277.92982 885.89089,291.05263 903.0137,291.05263 919.64527,291.05263 932.1365,277.92982 932.1365,261.01754 932.1365,244.10526 919.08387,231.05263 903.0137,231.05263 887.08387,231.05263 873.82071,244.10526 873.82071,261.01754 Z M 888.06633,261.01754 C 888.06633,252.38597 892.83826,243.75439 903.0137,243.75439 913.25931,243.75439 917.89089,252.38597 917.89089,261.01754 917.89089,269.64912 913.54001,278.2807 903.0137,278.2807 892.20668,278.2807 888.06633,269.64912 888.06633,261.01754 Z"/>
	<path d="M 956.15078,254.07018 956.29113,254.07018 979.30867,290 992.50165,290 992.50165,232.10526 979.30867,232.10526 979.30867,268.03509 979.16832,268.03509 956.15078,232.10526 942.95779,232.10526 942.95779,290 956.15078,290 956.15078,254.07018 Z"/>
</svg>
